<mxfile host="65bd71144e">
    <diagram id="u45IbuAR84kb1iQbT7bp" name="Process Flow">
        <mxGraphModel dx="935" dy="659" grid="0" gridSize="10" guides="1" tooltips="1" connect="1" arrows="1" fold="1" page="1" pageScale="1" pageWidth="1400" pageHeight="850" math="0" shadow="0">
            <root>
                <mxCell id="0"/>
                <mxCell id="1" parent="0"/>
                <mxCell id="26" style="edgeStyle=none;html=1;" parent="1" target="5" edge="1">
                    <mxGeometry relative="1" as="geometry">
                        <mxPoint x="143" y="185" as="sourcePoint"/>
                    </mxGeometry>
                </mxCell>
                <mxCell id="2" value="&lt;font style=&quot;font-size: 19px;&quot;&gt;Client&lt;/font&gt;" style="sketch=0;outlineConnect=0;fontColor=#232F3E;gradientColor=none;strokeColor=#ffffff;fillColor=#232F3E;dashed=0;verticalLabelPosition=middle;verticalAlign=bottom;align=center;html=1;whiteSpace=wrap;fontSize=10;fontStyle=1;spacing=3;shape=mxgraph.aws4.productIcon;prIcon=mxgraph.aws4.command_line_interface;" parent="1" vertex="1">
                    <mxGeometry x="61" y="165" width="80" height="120" as="geometry"/>
                </mxCell>
                <mxCell id="45" style="edgeStyle=none;html=1;entryX=0.5;entryY=0;entryDx=0;entryDy=0;" parent="1" source="3" target="12" edge="1">
                    <mxGeometry relative="1" as="geometry"/>
                </mxCell>
                <mxCell id="3" value="&lt;b&gt;&lt;font style=&quot;font-size: 18px;&quot;&gt;Database&lt;/font&gt;&lt;/b&gt;" style="image;html=1;image=img/lib/clip_art/computers/Database_128x128.png" parent="1" vertex="1">
                    <mxGeometry x="956" y="205" width="80" height="80" as="geometry"/>
                </mxCell>
                <mxCell id="40" style="edgeStyle=none;html=1;" parent="1" source="5" target="6" edge="1">
                    <mxGeometry relative="1" as="geometry"/>
                </mxCell>
                <mxCell id="49" style="edgeStyle=none;html=1;" parent="1" source="5" target="2" edge="1">
                    <mxGeometry relative="1" as="geometry">
                        <mxPoint x="154.2125701904297" y="235.01876831054688" as="targetPoint"/>
                    </mxGeometry>
                </mxCell>
                <mxCell id="5" value="&lt;font style=&quot;font-size: 20px;&quot;&gt;Backend&lt;/font&gt;&lt;div&gt;&lt;br&gt;&lt;/div&gt;" style="image;aspect=fixed;perimeter=ellipsePerimeter;html=1;align=center;shadow=0;dashed=0;fontColor=#4277BB;labelBackgroundColor=default;fontSize=12;spacingTop=3;image=img/lib/ibm/infrastructure/mobile_backend.svg;" parent="1" vertex="1">
                    <mxGeometry x="416" y="184" width="60" height="60" as="geometry"/>
                </mxCell>
                <mxCell id="42" style="edgeStyle=none;html=1;" parent="1" edge="1">
                    <mxGeometry relative="1" as="geometry">
                        <mxPoint x="567" y="184.17516795865632" as="sourcePoint"/>
                        <mxPoint x="710" y="179.00204134366928" as="targetPoint"/>
                    </mxGeometry>
                </mxCell>
                <mxCell id="6" value="server.js" style="whiteSpace=wrap;html=1;shape=mxgraph.basic.document" parent="1" vertex="1">
                    <mxGeometry x="512" y="140" width="55" height="64" as="geometry"/>
                </mxCell>
                <mxCell id="7" value="database.js" style="whiteSpace=wrap;html=1;shape=mxgraph.basic.document" parent="1" vertex="1">
                    <mxGeometry x="614" y="58" width="71" height="65" as="geometry"/>
                </mxCell>
                <mxCell id="43" style="edgeStyle=none;html=1;entryX=1;entryY=0.25;entryDx=0;entryDy=0;" parent="1" source="9" target="11" edge="1">
                    <mxGeometry relative="1" as="geometry"/>
                </mxCell>
                <mxCell id="9" value="&lt;font style=&quot;font-size: 14px;&quot;&gt;routes/API/gates&lt;/font&gt;" style="image;html=1;image=img/lib/clip_art/general/Empty_Folder_128x128.png" parent="1" vertex="1">
                    <mxGeometry x="710" y="140" width="46" height="50" as="geometry"/>
                </mxCell>
                <mxCell id="59" style="edgeStyle=none;html=1;" parent="1" source="10" target="7" edge="1">
                    <mxGeometry relative="1" as="geometry"/>
                </mxCell>
                <mxCell id="10" value=".env&lt;div&gt;&lt;br&gt;&lt;/div&gt;" style="whiteSpace=wrap;html=1;shape=mxgraph.basic.document" parent="1" vertex="1">
                    <mxGeometry x="528" y="22" width="39" height="42" as="geometry"/>
                </mxCell>
                <mxCell id="44" style="edgeStyle=none;html=1;" parent="1" source="11" target="12" edge="1">
                    <mxGeometry relative="1" as="geometry"/>
                </mxCell>
                <mxCell id="47" style="edgeStyle=none;html=1;entryX=0.75;entryY=1;entryDx=0;entryDy=0;" parent="1" source="11" target="9" edge="1">
                    <mxGeometry relative="1" as="geometry"/>
                </mxCell>
                <mxCell id="11" value="&lt;font style=&quot;font-size: 14px;&quot;&gt;controller/facilitator&lt;/font&gt;" style="image;html=1;image=img/lib/clip_art/general/Empty_Folder_128x128.png" parent="1" vertex="1">
                    <mxGeometry x="571" y="298" width="48" height="50" as="geometry"/>
                </mxCell>
                <mxCell id="30" style="edgeStyle=none;html=1;" parent="1" source="12" target="3" edge="1">
                    <mxGeometry relative="1" as="geometry">
                        <Array as="points">
                            <mxPoint x="868" y="326"/>
                            <mxPoint x="922" y="297"/>
                        </Array>
                    </mxGeometry>
                </mxCell>
                <mxCell id="46" style="edgeStyle=none;html=1;entryX=1;entryY=0.25;entryDx=0;entryDy=0;" parent="1" source="12" target="11" edge="1">
                    <mxGeometry relative="1" as="geometry"/>
                </mxCell>
                <mxCell id="12" value="&lt;font style=&quot;font-size: 15px;&quot;&gt;models/ Data Saving Faciilitator&lt;/font&gt;&lt;div&gt;&lt;br&gt;&lt;/div&gt;" style="image;html=1;image=img/lib/clip_art/general/Empty_Folder_128x128.png" parent="1" vertex="1">
                    <mxGeometry x="745" y="319" width="48" height="50" as="geometry"/>
                </mxCell>
                <mxCell id="14" style="edgeStyle=none;html=1;" parent="1" source="13" target="7" edge="1">
                    <mxGeometry relative="1" as="geometry"/>
                </mxCell>
                <mxCell id="13" value="config&lt;div&gt;&lt;br&gt;&lt;/div&gt;" style="image;html=1;image=img/lib/clip_art/general/Empty_Folder_128x128.png" parent="1" vertex="1">
                    <mxGeometry x="430" y="69" width="77" height="51" as="geometry"/>
                </mxCell>
                <mxCell id="16" style="edgeStyle=none;html=1;entryX=-0.051;entryY=0.339;entryDx=0;entryDy=0;entryPerimeter=0;" parent="1" source="13" target="10" edge="1">
                    <mxGeometry relative="1" as="geometry"/>
                </mxCell>
                <mxCell id="31" value="&lt;font style=&quot;font-size: 31px; color: light-dark(rgb(0, 0, 0), rgb(204, 204, 204));&quot;&gt;1&lt;/font&gt;" style="rounded=0;whiteSpace=wrap;html=1;fillColor=#1ba1e2;fontColor=#ffffff;strokeColor=#006EAF;" parent="1" vertex="1">
                    <mxGeometry x="149" y="167" width="22" height="19" as="geometry"/>
                </mxCell>
                <mxCell id="41" value="" style="endArrow=none;dashed=1;html=1;dashPattern=1 3;strokeWidth=2;exitX=0.5;exitY=0;exitDx=0;exitDy=0;entryX=0.5;entryY=1;entryDx=0;entryDy=0;" parent="1" source="5" target="13" edge="1">
                    <mxGeometry width="50" height="50" relative="1" as="geometry">
                        <mxPoint x="430" y="152" as="sourcePoint"/>
                        <mxPoint x="480" y="102" as="targetPoint"/>
                    </mxGeometry>
                </mxCell>
                <mxCell id="48" style="edgeStyle=none;html=1;entryX=0.957;entryY=0.285;entryDx=0;entryDy=0;entryPerimeter=0;" parent="1" source="9" target="6" edge="1">
                    <mxGeometry relative="1" as="geometry"/>
                </mxCell>
                <mxCell id="52" value="&lt;font style=&quot;font-size: 31px; color: light-dark(rgb(0, 0, 0), rgb(204, 204, 204));&quot;&gt;2&lt;/font&gt;" style="rounded=0;whiteSpace=wrap;html=1;fillColor=#1ba1e2;fontColor=#ffffff;strokeColor=#006EAF;" parent="1" vertex="1">
                    <mxGeometry x="476" y="179" width="22" height="19" as="geometry"/>
                </mxCell>
                <mxCell id="53" value="&lt;font style=&quot;font-size: 31px; color: light-dark(rgb(0, 0, 0), rgb(204, 204, 204));&quot;&gt;3&lt;/font&gt;" style="rounded=0;whiteSpace=wrap;html=1;fillColor=#1ba1e2;fontColor=#ffffff;strokeColor=#006EAF;" parent="1" vertex="1">
                    <mxGeometry x="694" y="142" width="22" height="19" as="geometry"/>
                </mxCell>
                <mxCell id="54" value="&lt;font style=&quot;font-size: 31px; color: light-dark(rgb(0, 0, 0), rgb(204, 204, 204));&quot;&gt;4&lt;/font&gt;" style="rounded=0;whiteSpace=wrap;html=1;fillColor=#1ba1e2;fontColor=#ffffff;strokeColor=#006EAF;" parent="1" vertex="1">
                    <mxGeometry x="592" y="279" width="22" height="19" as="geometry"/>
                </mxCell>
                <mxCell id="55" value="&lt;font style=&quot;font-size: 31px; color: light-dark(rgb(0, 0, 0), rgb(204, 204, 204));&quot;&gt;5&lt;/font&gt;" style="rounded=0;whiteSpace=wrap;html=1;fillColor=#1ba1e2;fontColor=#ffffff;strokeColor=#006EAF;" parent="1" vertex="1">
                    <mxGeometry x="710" y="345" width="22" height="19" as="geometry"/>
                </mxCell>
                <mxCell id="57" value="&lt;font style=&quot;font-size: 31px; color: light-dark(rgb(0, 0, 0), rgb(204, 204, 204));&quot;&gt;6&lt;/font&gt;" style="rounded=0;whiteSpace=wrap;html=1;fillColor=#1ba1e2;fontColor=#ffffff;strokeColor=#006EAF;" parent="1" vertex="1">
                    <mxGeometry x="956" y="275" width="22" height="19" as="geometry"/>
                </mxCell>
                <mxCell id="60" value="" style="endArrow=none;dashed=1;html=1;dashPattern=1 3;strokeWidth=2;exitX=0.5;exitY=0;exitDx=0;exitDy=0;" parent="1" target="7" edge="1">
                    <mxGeometry width="50" height="50" relative="1" as="geometry">
                        <mxPoint x="563" y="148" as="sourcePoint"/>
                        <mxPoint x="586" y="84" as="targetPoint"/>
                    </mxGeometry>
                </mxCell>
            </root>
        </mxGraphModel>
    </diagram>
    <diagram id="EAE_wbxzUpr5P2b-84xh" name="3 Layer Structure">
        <mxGraphModel dx="935" dy="659" grid="0" gridSize="10" guides="1" tooltips="1" connect="1" arrows="1" fold="1" page="1" pageScale="1" pageWidth="1400" pageHeight="850" math="0" shadow="0">
            <root>
                <mxCell id="0"/>
                <mxCell id="1" parent="0"/>
                <mxCell id="GrtP37reiRMMrFfaz6xo-10" style="edgeStyle=none;html=1;entryX=0.5;entryY=0;entryDx=0;entryDy=0;" edge="1" parent="1" source="GrtP37reiRMMrFfaz6xo-1" target="GrtP37reiRMMrFfaz6xo-2">
                    <mxGeometry relative="1" as="geometry"/>
                </mxCell>
                <mxCell id="GrtP37reiRMMrFfaz6xo-1" value="&lt;font style=&quot;font-size: 28px;&quot;&gt;Client&lt;/font&gt;" style="rounded=1;whiteSpace=wrap;html=1;" vertex="1" parent="1">
                    <mxGeometry x="374" y="82" width="251" height="37" as="geometry"/>
                </mxCell>
                <mxCell id="GrtP37reiRMMrFfaz6xo-11" style="edgeStyle=none;html=1;" edge="1" parent="1" source="GrtP37reiRMMrFfaz6xo-2" target="GrtP37reiRMMrFfaz6xo-4">
                    <mxGeometry relative="1" as="geometry"/>
                </mxCell>
                <mxCell id="GrtP37reiRMMrFfaz6xo-12" style="edgeStyle=none;html=1;" edge="1" parent="1" source="GrtP37reiRMMrFfaz6xo-2" target="GrtP37reiRMMrFfaz6xo-5">
                    <mxGeometry relative="1" as="geometry"/>
                </mxCell>
                <mxCell id="GrtP37reiRMMrFfaz6xo-2" value="&lt;font style=&quot;font-size: 28px;&quot;&gt;Routes&lt;/font&gt;" style="rounded=1;whiteSpace=wrap;html=1;" vertex="1" parent="1">
                    <mxGeometry x="381" y="185" width="251" height="39" as="geometry"/>
                </mxCell>
                <mxCell id="GrtP37reiRMMrFfaz6xo-15" style="edgeStyle=none;html=1;" edge="1" parent="1" source="GrtP37reiRMMrFfaz6xo-3" target="GrtP37reiRMMrFfaz6xo-7">
                    <mxGeometry relative="1" as="geometry"/>
                </mxCell>
                <mxCell id="GrtP37reiRMMrFfaz6xo-3" value="&lt;font style=&quot;font-size: 22px;&quot;&gt;Service&lt;/font&gt;" style="rounded=1;whiteSpace=wrap;html=1;" vertex="1" parent="1">
                    <mxGeometry x="101" y="294" width="150" height="77" as="geometry"/>
                </mxCell>
                <mxCell id="GrtP37reiRMMrFfaz6xo-14" style="edgeStyle=none;html=1;" edge="1" parent="1" source="GrtP37reiRMMrFfaz6xo-4" target="GrtP37reiRMMrFfaz6xo-3">
                    <mxGeometry relative="1" as="geometry"/>
                </mxCell>
                <mxCell id="GrtP37reiRMMrFfaz6xo-4" value="&lt;font style=&quot;font-size: 22px;&quot;&gt;Controller&lt;/font&gt;" style="rounded=1;whiteSpace=wrap;html=1;" vertex="1" parent="1">
                    <mxGeometry x="322" y="292" width="150" height="77" as="geometry"/>
                </mxCell>
                <mxCell id="GrtP37reiRMMrFfaz6xo-13" style="edgeStyle=none;html=1;entryX=0;entryY=0.5;entryDx=0;entryDy=0;" edge="1" parent="1" source="GrtP37reiRMMrFfaz6xo-5" target="GrtP37reiRMMrFfaz6xo-6">
                    <mxGeometry relative="1" as="geometry"/>
                </mxCell>
                <mxCell id="GrtP37reiRMMrFfaz6xo-5" value="&lt;font style=&quot;font-size: 22px;&quot;&gt;Controller&lt;/font&gt;" style="rounded=1;whiteSpace=wrap;html=1;" vertex="1" parent="1">
                    <mxGeometry x="568" y="290" width="150" height="77" as="geometry"/>
                </mxCell>
                <mxCell id="GrtP37reiRMMrFfaz6xo-16" style="edgeStyle=none;html=1;" edge="1" parent="1" source="GrtP37reiRMMrFfaz6xo-6" target="GrtP37reiRMMrFfaz6xo-8">
                    <mxGeometry relative="1" as="geometry"/>
                </mxCell>
                <mxCell id="GrtP37reiRMMrFfaz6xo-6" value="&lt;font style=&quot;font-size: 22px;&quot;&gt;Service&lt;/font&gt;" style="rounded=1;whiteSpace=wrap;html=1;" vertex="1" parent="1">
                    <mxGeometry x="784" y="294" width="150" height="77" as="geometry"/>
                </mxCell>
                <mxCell id="GrtP37reiRMMrFfaz6xo-7" value="&lt;font style=&quot;font-size: 22px;&quot;&gt;Model&lt;/font&gt;" style="rounded=1;whiteSpace=wrap;html=1;" vertex="1" parent="1">
                    <mxGeometry x="98" y="442" width="150" height="77" as="geometry"/>
                </mxCell>
                <mxCell id="GrtP37reiRMMrFfaz6xo-18" style="edgeStyle=none;html=1;" edge="1" parent="1" source="GrtP37reiRMMrFfaz6xo-8" target="GrtP37reiRMMrFfaz6xo-9">
                    <mxGeometry relative="1" as="geometry"/>
                </mxCell>
                <mxCell id="GrtP37reiRMMrFfaz6xo-8" value="&lt;font style=&quot;font-size: 22px;&quot;&gt;Model&lt;/font&gt;" style="rounded=1;whiteSpace=wrap;html=1;" vertex="1" parent="1">
                    <mxGeometry x="778" y="444" width="150" height="77" as="geometry"/>
                </mxCell>
                <mxCell id="GrtP37reiRMMrFfaz6xo-9" value="&lt;font style=&quot;font-size: 16px;&quot;&gt;Database&lt;/font&gt;" style="rhombus;whiteSpace=wrap;html=1;" vertex="1" parent="1">
                    <mxGeometry x="441" y="590" width="170" height="111" as="geometry"/>
                </mxCell>
                <mxCell id="GrtP37reiRMMrFfaz6xo-17" style="edgeStyle=none;html=1;entryX=0.12;entryY=0.424;entryDx=0;entryDy=0;entryPerimeter=0;" edge="1" parent="1" source="GrtP37reiRMMrFfaz6xo-7" target="GrtP37reiRMMrFfaz6xo-9">
                    <mxGeometry relative="1" as="geometry"/>
                </mxCell>
            </root>
        </mxGraphModel>
    </diagram>
</mxfile>